<svg xmlns="http://www.w3.org/2000/svg" aria-hidden="true" style="position:absolute;width:0;height:0;overflow:hidden"><defs><symbol id="icon-logo" viewBox="0 0 43 32"><path stroke-linecap="round" stroke-linejoin="round" stroke-width="2.222" d="M7.333 28.121V16c0-7.81 6.268-14.141 14-14.141s14 6.331 14 14.141v12.121h-28zm0-10.101h-4c-1.105 0-2 .904-2 2.02v8.081a2.01 2.01 0 0 0 2 2.02h4V18.02zm28 0h4c1.105 0 2 .904 2 2.02v8.081a2.01 2.01 0 0 1-2 2.02h-4V18.02z"/><path stroke-linecap="round" stroke-linejoin="round" stroke-width="2.222" d="M13.333 24.081h4l2-6.061 4 12.121 2-6.061h4"/></symbol><symbol id="icon-menu-line" viewBox="0 0 32 32"><path fill="#fff" d="M28.444 25.778H3.555a.887.887 0 0 1-.629-1.517.89.89 0 0 1 .629-.26h24.889a.889.889 0 0 1 0 1.777zM28.444 16.889H3.555a.887.887 0 0 1-.629-1.517.89.89 0 0 1 .629-.26h24.889a.889.889 0 0 1 0 1.777zM28.444 8H3.555a.887.887 0 0 1-.629-1.518.887.887 0 0 1 .629-.26h24.889a.889.889 0 0 1 0 1.778z" style="fill:var(--color1, #fff)"/></symbol><symbol id="icon-link-external" viewBox="0 0 32 32"><path fill="#fff" d="M3 2h9v2H4v24h24v-8h2v9l-1 1H3l-1-1V3l1-1z" style="fill:var(--color1, #fff)"/><path fill="#fff" d="M30 3v13h-2V5.414L14.486 18.93l-1.414-1.416L26.586 4H16V2h13l1 1z" style="fill:var(--color1, #fff)"/></symbol><symbol id="icon-play-icon" viewBox="0 0 32 32"><path fill="#818698" d="M32 16c0 8.837-7.163 16-16 16S0 24.837 0 16 7.163 0 16 0s16 7.163 16 16z" opacity=".2" style="fill:var(--color2, #818698)"/><path fill="#fff" d="m20.244 3.216-1.038-.371-.512 1.43 1.038.371c.37.132.776.02.95-.466s-.069-.831-.439-.963zm-.54 1.072-.531-.19.291-.813.531.19c.278.099.445.226.32.573s-.333.339-.611.24zM24.935 5.816l-.473-.356-1.339-.022.474-.629-.312-.235-.913 1.214.312.235.175-.232.578.008.154.906.432.325-.228-1.227 1.141.014zM25.584 8.714c.394.537.791.604 1.196.306.404-.297.457-.694.063-1.23-.396-.539-.787-.606-1.193-.308-.407.299-.462.694-.066 1.233zm.264-.194c-.24-.327-.219-.539.033-.724.25-.184.456-.141.698.187s.219.539-.03.722c-.25.184-.461.142-.701-.185zM29.356 14.587l.308-.037-.19-1.594-1.508.18.19 1.594.308-.037-.144-1.206.306-.036.144 1.206.28-.033-.144-1.206.306-.037.144 1.206zM29.388 19.625l-1.055-.878 1.338-.308.101-.426-1.658.408-.124.519 1.297 1.112.101-.426zM27.352 23.618l.265.162.838-1.369-1.295-.793-.838 1.369.265.162.634-1.036.263.161-.634 1.036.241.147.634-1.036.263.161-.634 1.036zM24.93 26.861l-.741-.868 1.53.195.403-.344-.986-1.155-.297.253.739.867-1.526-.195-.404.345.986 1.155.297-.253zM20.796 29.304l1.718-.727-.128-.302-.679.287-.464-1.097-.36.152.464 1.097-.679.287.128.302zM17.113 29.659c.041.375.355.442.875.385.5-.054.842-.205.788-.707l-.388.042c.026.239-.122.306-.456.342s-.42-.009-.433-.134c-.037-.343 1.302-.346 1.234-.974l-.021-.196-1.691.183.035.326 1.147-.124c-.062.31-1.153.273-1.09.858zM14.085 28.482c-.59-.116-.927.104-1.024.597-.096.492.133.82.723.936.592.116.926-.099 1.023-.593.097-.496-.13-.824-.722-.94zm-.064.322c.336.066.457.262.402.543-.055.279-.24.413-.576.347s-.457-.262-.403-.539c.055-.279.241-.417.577-.351zM9.393 27.98c-.173.335.053.564.518.804.447.231.815.294 1.047-.155l-.347-.179c-.11.214-.27.188-.569.034s-.345-.239-.288-.351c.158-.306 1.277.43 1.567-.131l.091-.175-1.511-.78-.15.291 1.026.529c-.223.224-1.113-.408-1.382.114zM6.503 25.764c-.265.269-.117.555.255.922.359.353.691.523 1.046.163l-.278-.274c-.169.172-.314.099-.553-.137s-.259-.331-.17-.421c.242-.246 1.092.79 1.535.34l.139-.141-1.212-1.194-.23.233.822.81c-.28.148-.941-.72-1.354-.301zM4.671 23.696l.149-.229-.301-.171.252-.103-.122-.242-.232.142.04-.344-.273-.015.004.345-.277-.207-.148.231.3.169-.252.103.125.243.23-.141-.041.342.273.015-.003-.346.276.208zM2.981 19.858l.21-.175-.237-.252.271-.025-.046-.267-.264.068.139-.317-.256-.094-.097.332-.205-.279-.209.177.237.25-.271.025.049.269.261-.067-.139.315.256.094.099-.332.203.28zM2.69 12.562l-.337 1.049 1.446.465.337-1.049c.12-.374-.005-.777-.497-.935s-.828.096-.949.47zm1.089.505-.173.537-.822-.264.173-.537c.09-.281.211-.452.562-.339s.35.322.26.603zM5.193 7.688l-.343.483.016 1.339-.642-.456-.226.318 1.238.879.226-.318-.237-.168-.008-.578.902-.18.313-.441-1.221.262-.018-1.141zM8.067 6.97c.52-.416.57-.815.255-1.208-.313-.391-.712-.428-1.232-.011-.522.418-.573.812-.258 1.205.316.395.713.432 1.235.015zm-.205-.256c-.317.254-.53.241-.725-.003-.194-.242-.16-.45.158-.705s.53-.241.722 0c.194.242.161.455-.155.708zM9.673 4.436l.214.169.198-.284.08.26.252-.1-.12-.244.339.071.04-.27-.344-.027.231-.258-.216-.168-.196.283-.08-.26-.253.103.12.242-.337-.072-.04.27.345.029-.232.256zM11.767 3.767l.214.169.198-.284.08.26.252-.1-.12-.244.339.071.04-.27-.344-.026.231-.258-.216-.168-.196.283-.08-.26-.253.103.12.242-.337-.072-.04.27.345.029-.232.256zM14.65 17.8a.15.15 0 0 1-.15-.15v-3.3a.15.15 0 0 1 .223-.131l3 1.65a.148.148 0 0 1 .057.207.15.15 0 0 1-.057.055l-3 1.65a.152.152 0 0 1-.072.019z" style="fill:var(--color1, #fff)"/></symbol></defs></svg>